/* XPM */
static char *qodem_big_icon_bits[] = {
/* columns rows colors chars-per-pixel */
"64 64 121 2 ",
"   c #001C00",
".  c #1A1A1A",
"X  c #341717",
"o  c #3F1616",
"O  c #002300",
"+  c #002C00",
"@  c #003200",
"#  c #003B00",
"$  c #192219",
"%  c #182A18",
"&  c #173417",
"*  c #163A16",
"=  c #232324",
"-  c #272729",
";  c #2B2B2D",
":  c #2E2E31",
">  c #323235",
",  c #363639",
"<  c #39393D",
"1  c #51380F",
"2  c #004400",
"3  c #004B00",
"4  c #005200",
"5  c #005A00",
"6  c #154515",
"7  c #144C14",
"8  c #145314",
"9  c #125E12",
"0  c #006500",
"q  c #006D00",
"w  c #007600",
"e  c #007D00",
"r  c #0F7C0F",
"t  c #116611",
"y  c #126B12",
"u  c #107310",
"i  c #3F730A",
"p  c #3E3E42",
"a  c #3D4642",
"s  c #424246",
"d  c #454549",
"f  c #4C4C51",
"g  c #525256",
"h  c #55555C",
"j  c #5D5D63",
"k  c #5F5F68",
"l  c #666666",
"z  c #66666A",
"x  c #69696D",
"c  c #6C6C73",
"v  c #6E6E7A",
"b  c #717176",
"n  c #74747C",
"m  c #79797E",
"M  c #8F5703",
"N  c #AC4F01",
"B  c #BF4000",
"V  c #008400",
"C  c #008B00",
"Z  c #0E830E",
"A  c #0D8C0D",
"S  c #009400",
"D  c #009C00",
"F  c #0D930D",
"G  c #0B9B0B",
"H  c #208800",
"J  c #208C0C",
"K  c #3E820B",
"L  c #3F9206",
"P  c #02A502",
"I  c #04AD04",
"U  c #0AA40A",
"Y  c #09AC09",
"T  c #10AF0B",
"R  c #04B604",
"E  c #05BC05",
"W  c #09B308",
"Q  c #08B908",
"!  c #14B707",
"~  c #11BF06",
"^  c #37A800",
"/  c #468B06",
"(  c #469E04",
")  c #4A9B03",
"_  c #409008",
"`  c #7A8500",
"'  c #718E00",
"]  c #6D9100",
"[  c #4AB300",
"{  c #03C403",
"}  c #10D702",
"|  c #01FE00",
" . c #767682",
".. c #7C7C84",
"X. c #7D7D88",
"o. c #818185",
"O. c #84848B",
"+. c #89898E",
"@. c #868690",
"#. c #8C8C93",
"$. c #8E8E99",
"%. c #929297",
"&. c #94949B",
"*. c #9A9A9E",
"=. c #9C9CA2",
"-. c #9F9FA9",
";. c #A2A2A5",
":. c #A5A5AA",
">. c #ABABAD",
",. c #A5A5B0",
"<. c #ADADB2",
"1. c #AFAFB9",
"2. c #B3B3B3",
"3. c #B4B4BA",
"4. c #BABABC",
"5. c #B6B6C1",
"6. c #BDBDC2",
"7. c #C3C3C5",
"8. c #C5C5C9",
"9. c #CCCCCC",
"0. c NONE",
/* pixels */
"0.0.0.0.0.0.0.0.0.0.0.0.0.0.0.0.0.0.0.0.0.0.0.0.0.0.0.0.0.0.0.0.0.0.0.0.0.0.0.0.0.0.0.0.0.0.0.0.0.0.0.0.0.0.0.0.0.0.0.0.0.0.0.0.",
"0.0.0.0.0.0.0.0.0.0.0.0.0.0.0.0.0.0.0.0.0.0.0.0.0.0.0.0.0.0.0.0.0.0.0.0.0.0.0.0.0.0.0.0.0.0.0.0.0.0.0.0.0.0.0.0.0.0.0.0.0.0.0.0.",
"0.0.0.0.0.0.0.0.0.0.0.0.0.0.0.0.:.6.0.0.0.0.0.0.0.0.0.0.0.0.0.0.0.0.0.0.0.0.0.0.0.0.0.0.0.0.0.0.0.0.0.0.0.0.0.0.0.0.0.0.0.0.0.0.",
"0.0.0.0.0.0.0.0.0.0.0.0.0.0.0.#.9.9.7.7.8.0.0.0.0.0.0.0.0.0.0.0.0.0.0.0.0.0.0.0.0.0.0.0.0.0.0.0.0.0.0.0.0.0.0.0.0.0.0.0.0.0.0.0.",
"0.0.0.0.0.0.0.0.0.0.0.0.0.0.0.=.;.6.7.9.9.9.8.8.0.0.0.0.0.0.0.0.0.0.0.0.0.0.0.0.0.0.0.0.0.0.0.0.0.0.0.0.0.0.0.0.0.0.0.0.0.0.0.0.",
"0.0.0.0.0.0.0.0.0.0.0.0.0.0.0.:.2.2.2.4.4.7.9.9.9.8.8.0.0.0.0.0.0.0.0.0.0.0.0.0.0.0.0.0.0.0.0.0.0.0.0.0.0.0.0.0.0.0.0.0.0.0.0.0.",
"0.0.0.0.0.0.0.0.0.0.0.0.0.0.0.:.>.*.>.2.2.2.4.4.4.9.9.9.8.8.6.0.0.0.0.0.0.0.0.0.0.0.0.0.0.0.0.0.0.0.0.0.0.0.0.0.0.0.0.0.0.0.0.0.",
"0.0.0.0.0.0.0.0.0.0.0.0.0.0.0.;.*.; g n #.=.2.2.2.4.7.6.9.9.9.9.8.8.0.0.0.0.0.0.0.0.0.0.0.0.0.0.0.0.0.0.0.0.0.0.0.0.0.0.0.0.0.0.",
"0.0.0.0.0.0.0.0.0.0.0.0.0.0.0.;.*.. . . = f x +.=.2.2.2.4.8.7.9.9.9.9.8.8.0.0.0.0.0.0.0.0.0.0.0.0.0.0.0.0.0.0.0.0.0.0.0.0.0.0.0.",
"0.0.0.0.0.0.0.0.0.0.0.0.0.0.0.;.*.. . . . . . . p l m *.>.2.2.2.6.7.8.9.9.9.8.8.0.0.0.0.0.0.0.0.0.0.0.0.0.0.0.0.0.0.0.0.0.0.0.0.",
"0.0.0.0.0.0.0.0.0.0.0.0.0.0.0.;.=.. . . . . . . . . . > h b &.:.2.2.2.6.9.9.9.9.9.8.8.0.0.0.0.0.0.0.0.0.0.0.0.0.0.0.0.0.0.0.0.0.",
"0.0.0.0.0.0.0.0.0.0.0.0.0.0.0.=.;.. . . . . . . . . . . . . - f x #.=.>.2.2.3.7.9.9.9.9.8.8.0.0.0.0.0.0.0.0.0.0.0.0.0.0.0.0.0.0.",
"0.0.0.0.0.0.0.0.0.0.0.0.0.0.0.=.>.. . . . . . . . . . . . . . . . $ d l ..=.2.2.2.4.4.8.9.9.9.8.9.6.0.0.0.0.0.0.0.0.0.0.0.0.0.0.",
"0.0.0.0.0.0.0.0.0.0.0.0.0.0.0.=.2.. . . . . . . . . * u U I Q W G y % . . > h b #.:.2.2.4.7.8.9.9.9.8.8.2.0.0.0.0.0.0.0.0.0.0.0.",
"0.0.0.0.0.0.0.0.0.0.0.0.0.0.0.=.2.= . . . . . . 7 W C 3 O O @ O   3 D Q 6 . . . ; g b +.;.2.2.4.8.8.9.9.O.0.0.0.0.0.0.0.0.0.0.0.",
"0.0.0.0.0.0.0.0.0.0.0.0.0.0.0.&.2.= . . . . $ G V O w R U F Z F Q R 0   D A . . . . . = d l o.=.>.2.4.:.x 0.0.0.0.0.0.0.0.0.0.0.",
"0.0.0.0.0.0.0.0.0.0.0.0.0.0.0.=.1.= . . . $ I # q Q 7 . . . . . . . u { 3 5 Y . . . . . . . . p j =.2.:.l 0.0.0.0.0.0.0.0.0.0.0.",
"0.0.0.0.0.0.0.0.0.0.0.0.0.0.0.=.2.- . . . Y + S u . . . . . . . . . . $ U 0 4 F . . . . . . . . . *.2.>.x 0.0.0.0.0.0.0.0.0.0.0.",
"0.0.0.0.0.0.0.0.0.0.0.0.0.0.0.$.2.; . . t q w y . . . . . . . . . . . . . U 3 S 7 . . . . . . . . &.2.:.l 0.0.0.0.0.0.0.0.0.0.0.",
"0.0.0.0.0.0.0.0.0.0.0.0.0.0.0.=.2.; . . E O Y . . . . . . . . . . . . . . $ {   W . . . . . . . . &.2.>.l 0.0.0.0.0.0.0.0.0.0.0.",
"0.0.0.0.0.0.0.0.0.0.0.0.0.0.0.$.2.: . * C e 6 . . . . . . . . . . . . . . . u 4 I % . . . . . . . %.2.>.l 0.0.0.0.0.0.0.0.0.0.0.",
"0.0.0.0.0.0.0.0.0.0.0.0.0.0.0.%.2.: . t 5 I . . . . . . . . . . . . . . . . & S w 7 . . . . . . . #.2.>.l 0.0.0.0.0.0.0.0.0.0.0.",
"0.0.0.0.0.0.0.0.0.0.0.0.0.0.0.%.2.> . r 2 R . . . . . . . . y . . . . . . . . I 0 9 . . . . . . . #.2.>.l 0.0.0.0.0.0.0.0.0.0.0.",
"0.0.0.0.0.0.0.0.0.0.0.0.0.0.0.$.2., . y 4 R . . . . . . . . * T $ . . . . . % D w 7 . . . . . . . +.2.<.l 0.0.0.0.0.0.0.0.0.0.0.",
"0.0.0.0.0.0.0.0.0.0.0.0.0.0.0.$.2., . 6 V e 8 . . . . . . . . K _ $ . . . . 9 0 P % . . . . . . . +.2.<.l 0.0.0.0.0.0.0.0.0.0.0.",
"0.0.0.0.0.0.0.0.0.0.0.0.0.0.0.$.2.< . . { O Q . . . . . . . . & N L $ . . . Q   Y . . . . . . . . O.2.<.l 0.0.0.0.0.0.0.0.0.0.0.",
"0.0.0.0.0.0.0.0.0.0.0.0.0.0.0.@.2.< . . u 0 w r . . . . . . . . i B / . . u 0 V 8 . . . . . . . . O.2.<.l 0.0.0.0.0.0.0.0.0.0.0.",
"0.0.0.0.0.0.0.0.0.0.0.0.0.0.0.$.2.< . . . E + P Z . . . . . . . . M ' / Z C 2 G . . . . . . . . . o.2.2.l 0.0.0.0.0.0.0.0.0.0.0.",
"0.0.0.0.0.0.0.0.0.0.0.0.0.0.0.$.2.s . . . % E + w E 8 . . . . . . o [ ' ^ 2 W $ . . . . . . . . . o.2.<.l 0.0.0.0.0.0.0.0.0.0.0.",
"0.0.0.0.0.0.0.0.0.0.0.0.0.0.0.@.2.s . . . . $ Y q   C { U Z u Z U E H | ' ( . . . . . . . . . . . m 2.2.l 0.0.0.0.0.0.0.0.0.0.0.",
"0.0.0.0.0.0.0.0.0.0.0.0.0.0.0.%.2.j = . . . . . t E w @   # 2 2   @ V } | ` 1 . . . . . . . . . . m 2.2.l 0.0.0.0.0.0.0.0.0.0.0.",
"0.0.0.0.0.0.0.0.0.0.0.0.0.0.0.0.0.:.<.O.h ; . . . . 6 Z W I P Y U u * $ ! | ] X . . . . . . . . . n 2.<.l 0.0.0.0.0.0.0.0.0.0.0.",
"0.0.0.0.0.0.0.0.0.0.0.0.0.0.0.0.0.2.7.3.1.>.O.h ; . . . . . . . . . . . . ! | ) . . . . . . . . . n 2.2.l 0.0.0.0.0.0.0.0.0.0.0.",
"0.0.0.0.0.0.0.0.0.0.0.0.0.0.0...4.9.9.9.9.7.3.1.<.=.z > . . . . . . . . . $ { | J . . . . . . . . b 2.2.l 0.0.0.0.0.0.0.0.0.0.0.",
"0.0.0.0.0.0.0.0.0.0.0.0.0.%.O.7.9.9.9.9.9.9.9.9.7.3.<.1.%.k > . . . . . . . . ! | 6 . . . . . . . c 2.1.l #.0.0.0.0.0.0.0.0.0.0.",
"0.0.0.0.0.0.0.0.0.0.0.0.n 4.%.>.9.9.9.9.9.9.9.9.9.9.9.7.5.5.2.%.j , . . . . . $ ! W . . . . . . . c 2.2.l $.0.0.0.0.0.0.0.0.0.0.",
"0.0.0.0.0.0.0.0.0.0.0.0.$.;.l 2.=.2.:.6.9.9.9.9.9.9.9.9.9.9.8.6.<.2.%.x d . . . . Q 6 . . . . . . x 2.2.l #.0.0.0.0.0.0.0.0.0.0.",
"0.0.0.0.0.0.0.0.0.0...=.<.=.=.9.*...;.O.4.>.9.9.9.9.9.9.9.9.9.9.9.6.1.1.2.=.v p . $ u . . . . . . x 2.1.l +.0.0.0.0.0.0.0.0.0.0.",
"0.0.0.0.0.0.0.0.0.c ;.O.2.>.4.9.<.#.:.O.&.+.;.2.9.9.9.9.9.9.9.9.9.9.9.9.6.1.3.2.=.v s . . . . . . z 2.2.l #.0.0.0.0.0.0.0.0.0.0.",
"0.0.0.0.0.0.0.0. .&.<...=.o.<.=.3.8.7.>.*.:.O.4.9.-.2.:.7.9.9.9.9.9.9.9.9.9.9.7.6.3.2.-.v s . . . l 2.2.l $.0.0.0.0.0.0.0.0.0.0.",
"0.0.0.0.0.0.0.v ;.+.2.&.&.=.o.=.m 3.&.2.7.6.<.9.>.*...=.&.>.3.9.9.9.9.9.9.9.9.9.9.9.8.6.3.2.=.n f j 2.<.l #.0.0.0.0.0.0.0.0.0.0.",
"0.0.0.0.0.0...*.>.X.=.O.<.=.=.:.O.*.X.;.O.4.;.8.4.:.X.2.m ;...6.:.9.9.9.9.9.9.9.9.9.9.9.9.7.5.1.2.>.2.<.l #.0.0.0.0.0.0.0.0.0.0.",
"0.0.0.0.0.O.#.2.%.,.=.=.X.=...4.#.:.&.=.#.+.*.2.%.7.2.2.$.;.#.=.o.9.:.2.2.2.8.9.9.9.9.9.9.9.9.9.8.5.2.>...0.0.0.0.0.0.0.0.0.0.0.",
"0.0.0.0.%.9.=.X.=...4.&.&.:.O.*.X.;.#.3.&.O.<.m &.:.O.6.;.>.-.&.3.9.@.:.b 6.>.&.4.9.9.9.9.9.9.9.4.m x 0.0.0.0.0.0.0.0.0.0.0.0.0.",
"0.0.0.;.9.4.<.=.,.@.=.O.;.=.3.%.&.=.+.%.*.2.O.:.;.+.&.*.n 9.&.*.4.7.&.;.+.;.b *.1.O.2.<.9.9.9.3.n l l 0.0.0.0.0.0.0.0.0.0.0.0.0.",
"0.0.:.9.9.#.6.7.;.;.=.&.X.=...>.#.>.;.O.2.n *.;.O.4.*.%.%.*.b ;.;.@.<.*.:.:...2.m #.=.o.9.9.2.c l l l 0.0.0.0.0.0.0.0.0.0.0.0.0.",
"n 2.9.9.9.;.<.>...>.8.7.&.<...2.m *.X.4.%.%.;.+.*.&.n 9.%.#.*.>.o.o.;.n 2.7.;.:.O.:.=.o.9.2.b l l l l 0.0.0.0.0.0.0.0.0.0.0.0.0.",
"O.$.4.9.9.1.:.;.#.2.>.&.*.=.6.<.#.;.+.*...4.X.>.2.#.&.*.c ;.;.o.:.*.;...=.o.&.2.4.<.;.9.<.c l l l x v 0.0.0.0.0.0.0.0.0.0.0.0.0.",
"&.2.;.#.*.7.9.2.2.<.2.$.O.&.<.4.7.6.<.%.;.;.m ;.o.>.4.O.+.2.m O.;.m 2.4.*...O.*.o.:.9.>.c l l l l v 0.0.0.0.0.0.0.0.0.0.0.0.0.0.",
"&.2.2.2.2.>.=.;.8.9.4.;.=.2.2.>.>.2.6.8.7.3.&.>.m *.o.O.7.+.%.*.=...=.o.#.2.2.;.b 3.:.x l l l x 0.0.0.0.0.0.0.0.0.0.0.0.0.0.0.0.",
"&.2.2.2.2.2.2.2.:.:.;.9.9.6.3.<.<.2.2.<.3.4.&.2.+.:.m 2.&.n ;.;.O.6.;.m O.=.o.&.2.*.x l l l x 0.0.0.0.0.0.0.0.0.0.0.0.0.0.0.0.0.",
"*.2.2.2.2.2.2.2.2.2.2.:.=.:.9.9.3.<.<.2.2.;.O.O.7.6.6.=.&.#.2.v %.:.+.&.<.:.c 4.;.x l l l x 0.0.0.0.0.0.0.0.0.0.0.0.0.0.0.0.0.0.",
"O.=.>.2.2.2.2.2.2.2.2.2.2.2.;.;.<.9.9.3.<.=.:.*.;.>.*.&.9.*.;...>.%...&.;.+.2.*.x l l l x 0.0.0.0.0.0.0.0.0.0.0.0.0.0.0.0.0.0.0.",
"0.0.0.O.=.>.2.2.2.2.2.2.2.2.2.2.2.:.;.2.9.8.9.;.:.2.#.;.+.2.9.6.;.=.&.2.#.%.*.l l l l x 0.0.0.0.0.0.0.0.0.0.0.0.0.0.0.0.0.0.0.0.",
"0.0.0.0.0.0.$.=.>.2.2.2.2.2.2.2.2.2.2.>.=.:.4.9.9.<.;.9.&.<.>.=.m 9.9.>.&.&.x l l l x 0.0.0.0.0.0.0.0.0.0.0.0.0.0.0.0.0.0.0.0.0.",
"0.0.0.0.0.0.0.0.0.*.;.<.2.2.2.2.2.2.2.2.2.2.>.:.:.6.9.9.2.:.<.=.=.9.9.9.%.x l l l x 0.0.0.0.0.0.0.0.0.0.0.0.0.0.0.0.0.0.0.0.0.0.",
"0.0.0.0.0.0.0.0.0.0.0.0.&.=.2.2.2.2.2.2.2.2.2.2.2.>.:.:.7.9.9.4.9.9.9.%.l l l l x 0.0.0.0.0.0.0.0.0.0.0.0.0.0.0.0.0.0.0.0.0.0.0.",
"0.0.0.0.0.0.0.0.0.0.0.0.0.0.0.=.:.2.2.2.2.2.2.2.2.2.2.2.;.;.;.9.9.9.#.z l l l c 0.0.0.0.0.0.0.0.0.0.0.0.0.0.0.0.0.0.0.0.0.0.0.0.",
"0.0.0.0.0.0.0.0.0.0.0.0.0.0.0.0.0.O.=.:.2.2.2.2.2.2.2.2.2.2.2.:.;.@.l l l l c 0.0.0.0.0.0.0.0.0.0.0.0.0.0.0.0.0.0.0.0.0.0.0.0.0.",
"0.0.0.0.0.0.0.0.0.0.0.0.0.0.0.0.0.0.0.0.#.=.>.2.2.2.2.2.2.2.2.2.2.#.l l l x 0.0.0.0.0.0.0.0.0.0.0.0.0.0.0.0.0.0.0.0.0.0.0.0.0.0.",
"0.0.0.0.0.0.0.0.0.0.0.0.0.0.0.0.0.0.0.0.0.0.0.#.;.>.2.2.2.2.2.2.2.#.l l c 0.0.0.0.0.0.0.0.0.0.0.0.0.0.0.0.0.0.0.0.0.0.0.0.0.0.0.",
"0.0.0.0.0.0.0.0.0.0.0.0.0.0.0.0.0.0.0.0.0.0.0.0.0.0.#.=.<.2.2.2.2.#.l c 0.0.0.0.0.0.0.0.0.0.0.0.0.0.0.0.0.0.0.0.0.0.0.0.0.0.0.0.",
"0.0.0.0.0.0.0.0.0.0.0.0.0.0.0.0.0.0.0.0.0.0.0.0.0.0.0.0.0.&.=.>.2.#.c 0.0.0.0.0.0.0.0.0.0.0.0.0.0.0.0.0.0.0.0.0.0.0.0.0.0.0.0.0.",
"0.0.0.0.0.0.0.0.0.0.0.0.0.0.0.0.0.0.0.0.0.0.0.0.0.0.0.0.0.0.0.0.=.X.0.0.0.0.0.0.0.0.0.0.0.0.0.0.0.0.0.0.0.0.0.0.0.0.0.0.0.0.0.0."
};
